<svg width="36" height="36" viewBox="0 0 36 36" fill="none" xmlns="http://www.w3.org/2000/svg">
<rect width="36" height="36" rx="18" fill="#E2E8F0"/>
<mask id="mask0_119_265" style="mask-type:alpha" maskUnits="userSpaceOnUse" x="6" y="6" width="24" height="24">
<rect x="6" y="6" width="24" height="24" fill="#D9D9D9"/>
</mask>
<g mask="url(#mask0_119_265)">
<path d="M11 22V17C11 16.7167 11.0958 16.4792 11.2875 16.2875C11.4792 16.0958 11.7167 16 12 16C12.2833 16 12.5208 16.0958 12.7125 16.2875C12.9042 16.4792 13 16.7167 13 17V22C13 22.2833 12.9042 22.5208 12.7125 22.7125C12.5208 22.9042 12.2833 23 12 23C11.7167 23 11.4792 22.9042 11.2875 22.7125C11.0958 22.5208 11 22.2833 11 22ZM17 22V17C17 16.7167 17.0958 16.4792 17.2875 16.2875C17.4792 16.0958 17.7167 16 18 16C18.2833 16 18.5208 16.0958 18.7125 16.2875C18.9042 16.4792 19 16.7167 19 17V22C19 22.2833 18.9042 22.5208 18.7125 22.7125C18.5208 22.9042 18.2833 23 18 23C17.7167 23 17.4792 22.9042 17.2875 22.7125C17.0958 22.5208 17 22.2833 17 22ZM9 27C8.71667 27 8.47917 26.9042 8.2875 26.7125C8.09583 26.5208 8 26.2833 8 26C8 25.7167 8.09583 25.4792 8.2875 25.2875C8.47917 25.0958 8.71667 25 9 25H27C27.2833 25 27.5208 25.0958 27.7125 25.2875C27.9042 25.4792 28 25.7167 28 26C28 26.2833 27.9042 26.5208 27.7125 26.7125C27.5208 26.9042 27.2833 27 27 27H9ZM23 22V17C23 16.7167 23.0958 16.4792 23.2875 16.2875C23.4792 16.0958 23.7167 16 24 16C24.2833 16 24.5208 16.0958 24.7125 16.2875C24.9042 16.4792 25 16.7167 25 17V22C25 22.2833 24.9042 22.5208 24.7125 22.7125C24.5208 22.9042 24.2833 23 24 23C23.7167 23 23.4792 22.9042 23.2875 22.7125C23.0958 22.5208 23 22.2833 23 22ZM27 14H8.9C8.65 14 8.4375 13.9125 8.2625 13.7375C8.0875 13.5625 8 13.35 8 13.1V12.55C8 12.3667 8.04583 12.2083 8.1375 12.075C8.22917 11.9417 8.35 11.8333 8.5 11.75L17.1 7.45C17.3833 7.31667 17.6833 7.25 18 7.25C18.3167 7.25 18.6167 7.31667 18.9 7.45L27.45 11.725C27.6333 11.8083 27.7708 11.9333 27.8625 12.1C27.9542 12.2667 28 12.4417 28 12.625V13C28 13.2833 27.9042 13.5208 27.7125 13.7125C27.5208 13.9042 27.2833 14 27 14ZM12.45 12H23.55L18 9.25L12.45 12Z" fill="url(#paint0_linear_119_265)"/>
</g>
<defs>
<linearGradient id="paint0_linear_119_265" x1="2.90909" y1="4.28738" x2="39.512" y2="23.6332" gradientUnits="userSpaceOnUse">
<stop stop-color="#6D28D9"/>
<stop offset="1" stop-color="#60A5FA"/>
</linearGradient>
</defs>
</svg>
